# xmcd
#
# Track frame offsets: 
#        150
#        16238
#        33658
#        56004
#        71680
#        88569
#        106830
#        127903
#        142716
#        164391
#        180291
#
# Disc length: 2619 seconds
#
# Revision: 0
# Processed by: cddbd v1.5.2PL0 Copyright (c) Steve Scherf et al.
# Submitted via: ExactAudioCopy v0.95a4
#
DISCID=830a390b
DTITLE=Shurman - A Week in the Life
DYEAR=2006
DGENRE=Country
TTITLE0=Big Things
TTITLE1=Tonight I'm Drinking
TTITLE2=Small Town Tragedy
TTITLE3=Drown'
TTITLE4=Country Just Ain't Country
TTITLE5=Red Eyes
TTITLE6=2 A. M.
TTITLE7=3 Chords
TTITLE8=So Happy
TTITLE9=Big Things - Alt Version
TTITLE10=Wonder Where You Are
EXTD=
EXTT0=
EXTT1=
EXTT2=
EXTT3=
EXTT4=
EXTT5=
EXTT6=
EXTT7=
EXTT8=
EXTT9=
EXTT10=
PLAYORDER=
